<svg xmlns="http://www.w3.org/2000/svg" version="1.1" width="646.55" height="632.33" viewBox="36.48 12.67 646.55 632.33">
<g transform="translate(0.000000,688.000000) scale(0.100000,-0.100000)" stroke="none">
<path fill="#7C3AED" d="M2810 6750 c-1337 -5 -1471 -7 -1535 -23 -242 -59 -406 -148 -573 -311 -172 -168 -263 -336 -318 -586 -18 -82 -19 -173 -19 -2240 0 -2397 -5 -2215 66 -2418 136 -385 496 -673 913 -731 53 -8 763 -11 2265 -11 1895 0 2200 2 2274 15 226 39 426 138 585 289 193 184 319 431 351 691 15 125 15 4165 0 4302 -15 133 -51 266 -103 377 -61 130 -106 196 -211 304 -166 173 -371 283 -608 327 -102 18 -944 22 -3087 15z m1127 -1291 c184 -25 332 -80 474 -177 154 -104 271 -236 351 -396 40 -80 88 -197 88 -216 0 -6 -39 -10 -93 -10 -167 0 -312 -56 -422 -164 -54 -53 -135 -179 -123 -192 2 -2 27 23 56 55 61 70 164 141 258 178 64 25 80 27 219 28 132 0 158 -3 215 -23 145 -52 260 -139 339 -258 71 -106 103 -208 108 -354 9 -217 -49 -371 -193 -517 -44 -46 -79 -83 -76 -83 18 0 135 65 169 94 119 103 202 286 203 448 0 31 3 59 8 61 14 9 157 -110 215 -179 69 -81 137 -216 168 -329 31 -114 31 -325 1 -440 -45 -165 -156 -339 -282 -442 -83 -68 -218 -138 -317 -165 -70 -19 -110 -22 -391 -26 l-313 -4 41 63 c57 88 81 172 87 302 4 84 2 123 -12 173 -9 35 -21 67 -26 70 -5 3 -9 -34 -9 -83 0 -318 -203 -602 -509 -713 -242 -88 -497 -76 -737 34 -84 39 -139 76 -243 160 l-74 60 -21 -28 c-250 -343 -534 -565 -896 -699 -155 -57 -149 -56 -109 -8 112 138 194 256 237 345 55 110 106 247 116 312 l7 41 -218 6 c-253 6 -299 15 -448 87 -123 59 -220 145 -300 264 -113 171 -149 299 -143 506 4 114 9 148 32 215 51 151 152 293 273 384 67 51 183 114 234 126 26 7 27 6 34 -57 15 -140 74 -276 160 -365 56 -58 90 -73 56 -24 -39 54 -90 174 -107 249 -24 107 -15 282 18 373 55 148 151 259 278 321 78 38 185 68 236 67 l29 0 -25 -17 c-96 -65 -167 -167 -190 -272 -20 -93 -9 -104 30 -30 157 292 490 345 744 118 31 -27 56 -46 56 -41 0 22 -63 113 -107 155 -89 83 -215 128 -324 115 l-50 -6 6 32 c41 190 128 364 257 514 229 268 604 410 955 362z"></path>
<path fill="#FFFFFF" d="M3400 5227 c-121 -37 -196 -82 -291 -177 -62 -62 -95 -104 -117 -151 -37 -78 -58 -150 -49 -172 14 -37 42 -16 90 66 127 219 330 385 537 441 l55 15 -75 0 c-49 0 -101 -8 -150 -22z"></path>
<path fill="#FFFFFF" d="M1506 3284 c-16 -40 -18 -179 -3 -249 36 -167 104 -276 220 -355 78 -53 135 -76 227 -91 65 -10 199 -3 183 11 -4 4 -39 15 -78 25 -226 60 -412 234 -490 460 -9 28 -25 88 -34 134 -13 60 -20 79 -25 65z"></path>
<path fill="#FFFFFF" d="M2641 3244 c-1 -49 22 -132 56 -198 56 -110 197 -210 336 -237 38 -8 61 -18 64 -28 53 -160 193 -342 328 -426 110 -69 180 -89 310 -89 107 0 195 15 195 34 0 6 -22 10 -48 10 -169 0 -381 90 -528 223 -55 50 -134 158 -158 218 l-15 36 79 16 c162 32 287 125 352 262 16 36 28 68 26 70 -2 3 -20 -16 -38 -41 -68 -90 -203 -171 -325 -193 -258 -48 -516 93 -614 335 l-20 49 0 -41z"></path>
</g>
</svg>
