<svg xmlns="http://www.w3.org/2000/svg" xmlns:xlink="http://www.w3.org/1999/xlink" xmlns:lucid="lucid" width="1911.29" height="685.68"><g transform="translate(695.4735243055555 1210.6809895833333)" lucid:page-tab-id="0_0"><path d="M-659.08-1147.4c.46 0 .86.36.86.84s-.4.84-.86.84c-.46 0-.86-.36-.86-.84s.4-.84.86-.84zm0 5.76c2.77 0 4.95-2.16 4.95-4.92s-2.18-4.92-4.95-4.92-4.95 2.16-4.95 4.92 2.18 4.92 4.95 4.92zm9.37-2.28h14.78v-5.4h-14.8v5.4zm25.2 99.72h-45c-2.78 0-5.02-2.16-5.02-4.8v-3.84h55.04v3.84c0 2.64-2.24 4.8-5 4.8zm-50.02-90.36h55.04v76.2h-55.04v-76.2zm7.32-18.6h40.4c4.02 0 7.32 3.12 7.32 7.08v6h-55.04v-6c0-3.96 3.3-7.08 7.32-7.08zm40.46-5.52h-40.46c-7.06 0-12.8 5.64-12.8 12.6v97.08c0 5.64 4.7 10.32 10.5 10.32h45c5.8 0 10.5-4.68 10.5-10.32v-97.08c0-6.96-5.74-12.6-12.74-12.6z" stroke="#000" stroke-opacity="0" fill="#232f3e"/><use xlink:href="#a" transform="matrix(1,0,0,1,-710,-1029.6809895833333) translate(16.526475694444443 21.52777777777778)"/><use xlink:href="#b" transform="matrix(1,0,0,1,-710,-1029.6809895833333) translate(22.776475694444443 21.52777777777778)"/><path d="M-304.6-1068.68h24.6v5.4h-24.6v24.6h-5.4v-24.6h-24.6v-5.4h24.6v-24.6h5.4v24.6zm-90 24.6v-43.68h43.68v43.68h-43.68zm46.44-49.2h-49.08c-1.56 0-2.76 1.32-2.76 2.76v49.08c0 1.56 1.2 2.76 2.76 2.76h49.08c1.44 0 2.76-1.2 2.76-2.76v-49.08c0-1.44-1.32-2.76-2.76-2.76zm19.08-16.32v-43.68h43.68v43.68h-43.68zm46.32-49.08h-49.08c-1.44 0-2.76 1.2-2.76 2.76v49.08c0 1.44 1.32 2.76 2.76 2.76h49.08c1.56 0 2.76-1.32 2.76-2.76v-49.08c0-1.56-1.2-2.76-2.76-2.76zm-111.84 49.08v-43.68h43.68v43.68h-43.68zm46.44-49.08h-49.08c-1.56 0-2.76 1.2-2.76 2.76v49.08c0 1.44 1.2 2.76 2.76 2.76h49.08c1.44 0 2.76-1.32 2.76-2.76v-49.08c0-1.56-1.32-2.76-2.76-2.76z" stroke="#000" stroke-opacity="0" fill="#232f3e"/><use xlink:href="#c" transform="matrix(1,0,0,1,-430,-1029.6809895833333) translate(0.64453125 21.52777777777778)"/><use xlink:href="#d" transform="matrix(1,0,0,1,-430,-1029.6809895833333) translate(6.89453125 21.52777777777778)"/><use xlink:href="#e" transform="matrix(1,0,0,1,-430,-1029.6809895833333) translate(85.69227430555556 21.52777777777778)"/><use xlink:href="#f" transform="matrix(1,0,0,1,-430,-1029.6809895833333) translate(29.187282986111114 53.79340277777778)"/><use xlink:href="#g" transform="matrix(1,0,0,1,-430,-1029.6809895833333) translate(86.923828125 53.79340277777778)"/><path d="M-133-1105.4h45.65v-5.52H-133v5.52zm0-11.88h45.65v-5.4H-133v5.4zm0-12h45.65v-5.52H-133v5.52zm0-11.64h45.65v-5.52H-133v5.52zm-6.7 96.84v-109.2h59.07v109.2h-59.08zm60.47-114.6h-61.88c-2.25 0-4.07 1.8-4.07 3.96v112.08c0 2.16 1.82 3.96 4.06 3.96h61.87c2.24 0 4.06-1.8 4.06-3.96v-112.08c0-2.16-1.82-3.96-4.06-3.96z" stroke="#000" stroke-opacity="0" fill="#232f3e"/><use xlink:href="#h" transform="matrix(1,0,0,1,-175.1734824156233,-1029.6809895833333) translate(34.42274305555556 21.52777777777778)"/><use xlink:href="#i" transform="matrix(1,0,0,1,-175.1734824156233,-1029.6809895833333) translate(40.67274305555556 21.52777777777778)"/><use xlink:href="#j" transform="matrix(1,0,0,1,-175.1734824156233,-1029.6809895833333) translate(19.44878472222223 53.79340277777778)"/><use xlink:href="#f" transform="matrix(1,0,0,1,-175.1734824156233,-1029.6809895833333) translate(4.295789930555557 86.05902777777777)"/><use xlink:href="#k" transform="matrix(1,0,0,1,-175.1734824156233,-1029.6809895833333) translate(62.03233506944444 86.05902777777777)"/><path d="M861.83-1077.44c-11.76 0-21.24-9.48-21.24-21.24 0-11.76 9.47-21.24 21.23-21.24s21.24 9.48 21.24 21.24c0 11.76-9.48 21.24-21.24 21.24zm0-48c-14.76 0-26.76 12-26.76 26.76 0 14.76 12 26.76 26.76 26.76 14.76 0 26.76-12 26.76-26.76 0-14.76-12-26.76-26.77-26.76zm54.6 36.96h-9.72c-1.2 0-2.27.84-2.63 2.04-.96 3.84-2.52 6.48-4.44 9.72-.6 1.08-.48 2.4.48 3.36l6.73 6.72-13.08 12.96-6.84-6.72c-.83-.84-2.15-1.08-3.23-.48l-.6.36c-3.24 1.92-5.52 3.24-9 4.08-1.2.36-2.04 1.44-2.04 2.64v9.72h-20.4v-9.72c0-1.2-.84-2.28-2.04-2.64-3.73-.96-6.5-2.4-9.85-4.44-1.08-.6-2.4-.48-3.36.48l-6.73 6.72-12.96-13.08 6.73-6.72c.96-.96 1.08-2.28.48-3.36l-.35-.48c-1.8-3.24-3.24-5.64-4.08-9.12-.36-1.2-1.44-2.04-2.64-2.04h-9.6v-20.4h9.72c1.2 0 2.28-.84 2.64-2.04.95-3.84 2.5-6.6 4.43-9.96.6-1.08.48-2.4-.48-3.24l-6.72-6.84 13.08-12.96 6.73 6.72c.96.96 2.28 1.08 3.36.48l.47-.24c3.24-1.92 5.64-3.36 9.12-4.2 1.2-.36 2.03-1.44 2.03-2.64v-9.48h20.4v9.6c0 1.2.84 2.28 2.04 2.64 3.48.96 5.76 2.28 9 4.2l.48.24c1.08.72 2.4.48 3.24-.36l6.7-6.72 12.85 12.96-6.72 6.84c-.84.84-1.08 2.16-.48 3.24 1.92 3.36 3.48 5.88 4.44 9.72.35 1.2 1.43 2.04 2.63 2.04h10.2v20.4zm.24-25.92h-8.4c-.96-2.64-2.04-4.92-3.36-7.2l5.53-5.52c1.92-2.04 1.92-5.16 0-7.2l-13.32-13.44c-1.9-2.04-5.27-2.04-7.3 0l-5.4 5.4c-2.17-1.32-4.33-2.4-6.97-3.36v-7.8c0-2.88-2.28-5.16-5.04-5.16h-21.13c-2.76 0-5.04 2.28-5.04 5.16v7.68c-2.76.84-4.92 2.04-7.2 3.36l-5.52-5.52c-2.03-2.04-5.27-2.04-7.2 0l-13.55 13.44c-.96.96-1.56 2.28-1.56 3.6 0 1.44.6 2.76 1.55 3.72l5.52 5.52c-1.32 2.28-2.52 4.56-3.36 7.32H807c-2.9 0-5.17 2.4-5.17 5.16v21.12c0 2.76 2.28 5.16 5.16 5.16h7.8c.83 2.64 2.03 4.8 3.35 7.08l-5.52 5.52c-2.04 2.04-2.04 5.28 0 7.2l13.44 13.56c.96.96 2.28 1.56 3.6 1.56 1.44 0 2.64-.6 3.6-1.56l5.52-5.52c2.4 1.32 4.67 2.52 7.43 3.36v7.92c0 2.88 2.28 5.16 5.04 5.16h21.12c2.75 0 5.03-2.28 5.03-5.16v-7.92c2.76-.84 4.92-2.04 7.2-3.36l5.52 5.52c2.04 2.04 5.28 2.04 7.2 0l13.56-13.44c.97-.96 1.57-2.28 1.57-3.6 0-1.44-.6-2.64-1.56-3.6l-5.5-5.52c1.3-2.28 2.5-4.56 3.35-7.2h7.92c2.88 0 5.16-2.4 5.16-5.16v-21.12c0-2.76-2.28-5.16-5.16-5.16z" stroke="#000" stroke-opacity="0" fill="#232f3e"/><use xlink:href="#l" transform="matrix(1,0,0,1,771.8265175843767,-1029.6809895833333) translate(42.57161458333334 21.52777777777778)"/><use xlink:href="#m" transform="matrix(1,0,0,1,771.8265175843767,-1029.6809895833333) translate(68.70008680555557 21.52777777777778)"/><use xlink:href="#n" transform="matrix(1,0,0,1,771.8265175843767,-1029.6809895833333) translate(15.721571180555543 53.79340277777778)"/><use xlink:href="#o" transform="matrix(1,0,0,1,771.8265175843767,-1029.6809895833333) translate(109.52582465277777 53.79340277777778)"/><use xlink:href="#p" transform="matrix(1,0,0,1,771.8265175843767,-1029.6809895833333) translate(50.281032986111114 86.05902777777777)"/><path d="M-537.1-1096.7H-612v-3.96h74.9zm114.36 0h-54.17v-3.96h54.16z" stroke="#3a414a" stroke-width=".05" fill="#3a414a"/><path d="M-611.95-1096.7H-614v-3.96h2.05z" fill="#3a414a"/><path stroke="#3a414a" stroke-width=".05" fill="#3a414a"/><path d="M-406.47-1098.68l-14.27 4.63v-9.27z" fill="#3a414a"/><path d="M-400.08-1098.68l-22.63 7.35v-14.7zm-18.68 1.92l5.9-1.92-5.9-1.92z" stroke="#3a414a" stroke-width=".05" fill="#3a414a"/><use xlink:href="#q" transform="matrix(1,0,0,1,-537.0868055555555,-1109.4361979166665) translate(0 17.22222222222222)"/><path d="M-243.72-1096.7H-278v-3.96h34.28zm75.8 0h-13.54v-3.96h13.55z" stroke="#3a414a" stroke-width=".05" fill="#3a414a"/><path d="M-277.95-1096.7H-283v-3.96h5.05z" fill="#3a414a"/><path stroke="#3a414a" stroke-width=".05" fill="#3a414a"/><path d="M-151.65-1098.68l-14.26 4.63v-9.27z" fill="#3a414a"/><path d="M-145.25-1098.68l-22.64 7.35v-14.7zm-18.7 1.92l5.9-1.92-5.9-1.92z" stroke="#3a414a" stroke-width=".05" fill="#3a414a"/><use xlink:href="#r" transform="matrix(1,0,0,1,-243.71491668294405,-1122.3424479166665) translate(0 17.22222222222222)"/><use xlink:href="#s" transform="matrix(1,0,0,1,-243.71491668294405,-1122.3424479166665) translate(0 43.034722222222214)"/><path d="M-19.4-1096.7h-53.77v-3.96h53.78zm150.54 0H98.1v-3.96h33.04z" stroke="#3a414a" stroke-width=".05" fill="#3a414a"/><path d="M-73.12-1096.7h-2.05v-3.96h2.05z" fill="#3a414a"/><path stroke="#3a414a" stroke-width=".05" fill="#3a414a"/><path d="M147.4-1098.68l-14.26 4.63v-9.27z" fill="#3a414a"/><path d="M153.8-1098.68l-22.63 7.35v-14.7zm-18.68 1.92l5.9-1.92-5.9-1.92z" stroke="#3a414a" stroke-width=".05" fill="#3a414a"/><use xlink:href="#t" transform="matrix(1,0,0,1,-19.387355878622458,-1109.4361979166665) translate(0 17.22222222222222)"/><use xlink:href="#u" transform="matrix(1,0,0,1,-19.387355878622458,-1109.4361979166665) translate(80.59895833333333 17.22222222222222)"/><path d="M-19.4-1096.7h-53.06v-3.96h53.07zm341.6 0H98.1v-3.96h224.1zm456.9 0H405.15v-3.96H779.1z" stroke="#3a414a" stroke-width=".05" fill="#3a414a"/><path d="M-72.4-1096.7h-2.06v-3.96h2.05z" stroke="#3a414a" stroke-width=".05" fill="#3a414a"/><path d="M795.35-1098.68l-14.26 4.63v-9.27z" fill="#3a414a"/><path d="M801.75-1098.68l-22.64 7.35v-14.7zm-18.7 1.92l5.9-1.92-5.9-1.92z" stroke="#3a414a" stroke-width=".05" fill="#3a414a"/><use xlink:href="#v" transform="matrix(1,0,0,1,322.20255324338615,-1109.4361979166665) translate(0 17.22222222222222)"/><path d="M502.32-1196.7H-104.1l-.7.05-.62.15-.58.24-.54.33-.47.4-.42.5-.33.52-.25.58-.14.6-.06.72v31.92h-3.95v-32.08l.1-1.17.3-1.22.47-1.15.65-1.07.8-.95.97-.82 1.06-.65 1.16-.47 1.22-.3 1.17-.1h606.58zm658.43-3.86l1.22.3 1.15.47 1.07.66.94.82.82.95.65 1.07.5 1.15.28 1.22.1 1.17v11.34h-3.95v-11.18l-.06-.7-.15-.62-.24-.6-.33-.52-.4-.48-.5-.4-.52-.34-.6-.24-.6-.15-.7-.06H553v-3.96h606.58z" stroke="#3a414a" stroke-width=".05" fill="#3a414a"/><path d="M-108.2-1158.68h-3.95v-2.05h3.95z" fill="#3a414a"/><path stroke="#3a414a" stroke-width=".05" fill="#3a414a"/><path d="M1165.5-1165.15l-4.63-14.27h9.27z" fill="#3a414a"/><path d="M1165.5-1158.76l-7.35-22.63h14.7zm-1.92-18.68l1.92 5.9 1.92-5.9z" stroke="#3a414a" stroke-width=".05" fill="#3a414a"/><use xlink:href="#w" transform="matrix(1,0,0,1,502.32471712552166,-1209.4361979166665) translate(0 17.22222222222222)"/><path d="M-108.2-682.74h-3.95V-838.6h3.95zm0-177.36h-3.95v-78.05h3.95zm0-166.58h-3.95v-10h3.95z" stroke="#3a414a" stroke-width=".05" fill="#3a414a"/><path d="M-108.2-1038.68v2.05h-3.95v-2.05z" fill="#3a414a"/><path stroke="#3a414a" stroke-width=".05" fill="#3a414a"/><path d="M-110.17-666.47l-4.64-14.27h9.26z" fill="#3a414a"/><path d="M-110.17-660.08l-7.36-22.63h14.7zm-1.92-18.68l1.93 5.9 1.9-5.9z" stroke="#3a414a" stroke-width=".05" fill="#3a414a"/><use xlink:href="#x" transform="matrix(1,0,0,1,-159.04935047117885,-860.0959964056419) translate(0 17.22222222222222)"/><path d="M958.67-1096.7h-34.84v-3.96h34.84zm138.6 0h-14.1v-3.96h14.1z" stroke="#3a414a" stroke-width=".05" fill="#3a414a"/><path d="M923.88-1096.7h-2.05v-3.96h2.05z" fill="#3a414a"/><path stroke="#3a414a" stroke-width=".05" fill="#3a414a"/><path d="M1113.53-1098.68l-14.27 4.63v-9.27z" fill="#3a414a"/><path d="M1119.92-1098.68l-22.63 7.35v-14.7zm-18.68 1.92l5.9-1.92-5.9-1.92z" stroke="#3a414a" stroke-width=".05" fill="#3a414a"/><use xlink:href="#y" transform="matrix(1,0,0,1,958.6693351810773,-1109.4361979166665) translate(0 17.22222222222222)"/><use xlink:href="#z" transform="matrix(1,0,0,1,958.6693351810773,-1109.4361979166665) translate(64.65277777777779 17.22222222222222)"/><path d="M535.4-606.52H-23.44v-3.96H535.4zm328.4-7.9l-.1 1.17-.28 1.22-.48 1.15-.66 1.07-.8.94-.96.82-1.07.65-1.16.5-1.22.28-1.18.1H710.44v-3.96h145.3l.72-.05.6-.15.6-.24.53-.33.47-.4.4-.5.34-.52.25-.6.15-.6.05-.7v-322.58h3.95zm0-412.26h-3.95v-10h3.95z" stroke="#3a414a" stroke-width=".05" fill="#3a414a"/><path d="M863.8-1036.63h-3.95v-2.05h3.95z" fill="#3a414a"/><path stroke="#3a414a" stroke-width=".05" fill="#3a414a"/><path d="M-25.43-603.87l-14.27-4.63 14.27-4.63z" fill="#3a414a"/><path d="M-23.46-601.15l-22.63-7.35 22.64-7.35zm-9.85-7.35l5.9 1.92v-3.84z" stroke="#3a414a" stroke-width=".05" fill="#3a414a"/><use xlink:href="#A" transform="matrix(1,0,0,1,535.3953109871544,-619.2552083333334) translate(0 17.22222222222222)"/><use xlink:href="#B" transform="matrix(1,0,0,1,535.3953109871544,-619.2552083333334) translate(101.96180555555553 17.22222222222222)"/><path d="M153.83-1073.03c-.12 1.28.96 2.57 3.24 3.56l48.84 19.93c4.33 1.8 11.53 1.8 15.85 0l48.84-19.93c2.27-1 3.35-2.28 3.23-3.56v-11.43c.12 1.24-.96 2.53-3.24 3.48l-48.85 19.93c-4.32 1.8-11.52 1.8-15.84 0l-48.83-19.93c-2.52-1.06-3.6-2.5-3.12-3.85l-.12 11.8z" stroke="#000" stroke-opacity="0" fill="#ba141a"/><path d="M270.58-1087.48c4.32 1.77 4.32 4.7 0 6.48l-48.84 20c-4.3 1.76-11.52 1.76-15.84 0l-48.83-20c-4.32-1.77-4.32-4.7 0-6.48l48.84-19.98c4.32-1.77 11.53-1.77 15.84 0l48.84 19.98z" stroke="#000" stroke-opacity="0" fill="#ba141a"/><path d="M153.83-1093.22c-.12 1.28.96 2.56 3.24 3.55l48.84 19.94c4.33 1.8 11.53 1.8 15.85 0l48.84-19.94c2.27-1 3.35-2.27 3.23-3.55v-11.44c.12 1.25-.96 2.53-3.24 3.48l-48.85 19.94c-4.32 1.8-11.52 1.8-15.84 0l-48.83-19.94c-2.52-1.06-3.6-2.5-3.12-3.85l-.12 11.8z" stroke="#000" stroke-opacity="0" fill="#ba141a"/><path d="M270.58-1107.67c4.32 1.76 4.32 4.7 0 6.48l-48.84 20c-4.3 1.76-11.52 1.76-15.84 0l-48.83-20c-4.32-1.76-4.32-4.7 0-6.47l48.84-20c4.32-1.76 11.53-1.76 15.84 0l48.84 20z" stroke="#000" stroke-opacity="0" fill="#ba141a"/><path d="M153.83-1113.42c-.12 1.28.96 2.57 3.24 3.56l48.84 19.93c4.33 1.8 11.53 1.8 15.85 0l48.84-19.93c2.27-1 3.35-2.28 3.23-3.56v-11.43c.12 1.24-.96 2.52-3.24 3.48l-48.85 19.93c-4.32 1.8-11.52 1.8-15.84 0l-48.83-19.93c-2.52-1.07-3.6-2.5-3.12-3.85l-.12 11.8z" stroke="#000" stroke-opacity="0" fill="#ba141a"/><path d="M153.83-1073.03c-.12 1.28.96 2.57 3.24 3.56l48.84 19.93c4.33 1.8 11.53 1.8 15.85 0l48.84-19.93c2.27-1 3.35-2.28 3.23-3.56v-11.43c.12 1.24-.96 2.53-3.24 3.48l-48.85 19.93c-4.32 1.8-11.52 1.8-15.84 0l-48.83-19.93c-2.52-1.06-3.6-2.5-3.12-3.85l-.12 11.8z" stroke="#000" stroke-opacity="0" fill="#93171b"/><path d="M153.83-1093.22c-.12 1.28.96 2.56 3.24 3.55l48.84 19.94c4.33 1.8 11.53 1.8 15.85 0l48.84-19.94c2.27-1 3.35-2.27 3.23-3.55v-11.44c.12 1.25-.96 2.53-3.24 3.48l-48.85 19.94c-4.32 1.8-11.52 1.8-15.84 0l-48.83-19.94c-2.52-1.06-3.6-2.5-3.12-3.85l-.12 11.8z" stroke="#000" stroke-opacity="0" fill="#93171b"/><path d="M153.83-1113.42c-.12 1.28.96 2.57 3.24 3.56l48.84 19.93c4.33 1.8 11.53 1.8 15.85 0l48.84-19.93c2.27-1 3.35-2.28 3.23-3.56v-11.43c.12 1.24-.96 2.52-3.24 3.48l-48.85 19.93c-4.32 1.8-11.52 1.8-15.84 0l-48.83-19.93c-2.52-1.07-3.6-2.5-3.12-3.85l-.12 11.8z" stroke="#000" stroke-opacity="0" fill="#93171b"/><path d="M270.58-1127.87c4.32 1.77 4.32 4.7 0 6.48l-48.84 20c-4.3 1.77-11.52 1.77-15.84 0l-48.83-20c-4.32-1.76-4.32-4.7 0-6.47l48.84-20c4.32-1.75 11.53-1.75 15.84 0l48.84 20z" stroke="#000" stroke-opacity="0" fill="#ba141a"/><path d="M198.8-1120.86c-5.57 2.46-14.58 2.46-20.16 0-5.56-2.5-5.56-6.5 0-8.97 5.58-2.47 14.6-2.47 20.17 0 5.57 2.48 5.57 6.48 0 8.97zM195.03-1114.5l28.55-3.4-7.65 12.68-20.9-9.28z" stroke="#000" stroke-opacity="0" fill="#fff"/><path d="M239.77-1117.7l-17.08-7.58 17.07-7.58v15.17z" stroke="#000" stroke-opacity="0" fill="#76191c"/><path d="M208.36-1134.55l-11.16-1 9.9-2.5-1.3-5.02 8.4 3.43 10.35-2.1-4.73 4.6 7.7 3.72-11.3-.58-5.62 4.4-2.24-4.95z" stroke="#000" stroke-opacity="0" fill="#fff"/><path d="M256.84-1125.28l-17.07-7.58v15.17l17.07-7.58z" fill="#93171b"/><use xlink:href="#C" transform="matrix(1,0,0,1,123.82651758437669,-1039.1809895833333) translate(15.477430555555557 21.52777777777778)"/><use xlink:href="#D" transform="matrix(1,0,0,1,123.82651758437669,-1039.1809895833333) translate(79.37717013888889 21.52777777777778)"/><path d="M308.84-1099.08l1 .24.93.4.86.52.78.66.67.77.53.88.4.94.22 1 .08.98v78.54l-.08 1-.23.98-.4.94-.53.87-.66.77-.77.66-.86.53-.94.38-1 .24-.98.07H-76.2l-1-.08-.97-.24-.94-.4-.88-.52-.77-.66-.66-.77-.54-.87-.4-.94-.23-1-.08-.98v-27.76l-.07-.88-.2-.85-.33-.8-.45-.74-.57-.65-.66-.56-.74-.46-.8-.33-.84-.2-.9-.07h-33.47v-.95h33.52l1 .08.98.24.94.4.86.52.78.66.67.77.53.87.4.94.22 1 .08.98v27.76l.07.88.2.85.34.8.46.74.56.65.66.57.74.44.8.33.84.2.9.07H307.8l.9-.07.83-.2.8-.33.74-.45.66-.57.56-.66.45-.74.33-.8.2-.85.07-.88v-78.46l-.07-.88-.2-.85-.33-.8-.45-.73-.57-.66-.66-.55-.74-.45-.8-.33-.84-.2-.9-.08h-17.6v-.96h17.65z" stroke="#3a414a" stroke-width=".05" fill="#3a414a"/><path d="M-121.66-1047.47h-.5v-.95h.5z" stroke="#3a414a" stroke-width=".05" fill="#3a414a"/><path d="M289.7-1094.05l-14.25-4.63 14.26-4.64z" fill="#3a414a"/><path d="M290.2-1093.4l-16.3-5.28 16.3-5.3zm-13.22-5.28l12.25 3.98v-7.96z" stroke="#3a414a" stroke-width=".05" fill="#3a414a"/><path d="M1120-1158.68h91v120h-91z" fill-opacity="0"/><path d="M1165.5-1125.98c-25.12 0-45.5-7.05-45.5-16.38v87.3c0 8.9 20.02 16.27 44.86 16.38h.64c25.12 0 45.5-7.05 45.5-16.38v-87.3c0 9.12-20.38 16.38-45.5 16.38z" fill="url(#E)"/><path d="M1211-1142.3c0 9.1-20.38 16.38-45.5 16.38s-45.5-7.08-45.5-16.38c0-9.3 20.38-16.38 45.5-16.38s45.5 7.08 45.5 16.38" fill="#e8e8e8"/><path d="M1200.44-1143.63c0 5.8-15.72 10.5-34.94 10.5s-34.94-4.7-34.94-10.5 15.72-10.4 34.94-10.4 34.94 4.68 34.94 10.4" fill="#50e6ff"/><path d="M1165.55-1141c-9.84-.24-18.23.98-27.62 4.03 9.4 3 17.78 4.16 27.62 3.82 9.88.28 18.28-.96 27.6-4.1-9.38-2.9-17.77-4.05-27.6-3.74z" fill="#198ab3"/><path d="M1193.2-1081.73v-24.02h-6.43v29.16h17.5v-5.13zm-50.67-11.8c-1.4-.54-2.48-1.2-3.65-2.2-.58-.63-.87-1.37-.8-2.26-.07-.84.3-1.62 1.02-2.1.95-.63 1.9-.88 3-.85 2.6-.1 4.95.56 7.06 2.04v-6.07c-2.33-.9-4.52-1.22-7.07-1.1-2.93-.2-5.4.6-7.74 2.35-2.04 1.55-3.06 3.77-2.98 6.32 0 3.6 2.25 6.4 7.06 8.54 1.68.7 3 1.44 4.45 2.55.65.54 1 1.32 1 2.24 0 .9-.35 1.67-1.08 2.18-1.02.6-2.04.86-3.2.78-3-.04-5.55-1-7.73-2.96l-.02 6.55c2.48 1.28 4.82 1.8 7.6 1.7 3.12.17 5.82-.57 8.37-2.34 1.82-1.7 2.62-3.96 2.33-6.43.07-1.9-.5-3.52-1.75-4.92-1.75-1.84-3.57-3.06-5.9-4.02zm37.17 11.25c1.68-2.85 2.4-5.66 2.33-8.9-.14-2.78-.87-5.1-2.33-7.5-1.16-2.3-2.7-4-4.96-5.3-2.25-1.3-4.5-1.85-7.07-1.85-2.84-.07-5.24.56-7.72 1.93-2.26 1.25-3.87 2.92-5.18 5.2-1.3 2.63-1.9 5.14-1.82 8.07 0 2.58.5 4.76 1.68 7.06 1.16 2.3 2.7 3.95 4.95 5.24 2.2 1.33 4.45 2 7.07 2.1l6.13 7.07h8.6l-8.75-7.76c3.06-.93 5.4-2.7 7.07-5.36zm-7.07-1.78c-1.38 1.67-3.28 2.52-5.4 2.48-2.18.07-4.08-.85-5.4-2.55-1.6-2.14-2.25-4.43-2.03-7.06-.22-2.6.44-4.94 2.04-7.05 1.4-1.74 3.28-2.62 5.54-2.62 2.2-.1 4.08.85 5.32 2.62 1.46 2.18 2.04 4.44 1.9 7.06.3 2.63-.37 5-1.97 7.14z" fill="url(#F)"/><g><use xlink:href="#G" transform="matrix(1,0,0,1,1090,-1029.6809895833333) translate(36.757595486111114 21.52777777777778)"/><use xlink:href="#H" transform="matrix(1,0,0,1,1090,-1029.6809895833333) translate(25.820095486111114 53.79340277777778)"/></g><path d="M-135.77-608.5h51.2l-12.8 12.88h-25.6l-12.8-12.88z" stroke="#000" stroke-opacity="0" fill="#4285f4"/><path d="M-142.2-660h64.05l6.38 12.88h-76.8l6.37-12.88zM-161.32-640.64h102.3l6.45 12.88h-115.2l6.45-12.88z" stroke="#000" stroke-opacity="0" fill="#aecbfa"/><path d="M-46.17-556.9v-58h-38.4l-12.8 19.32h-25.6l-12.8-19.3h-38.4v57.98h128z" stroke="#000" stroke-opacity="0" fill="#669df6"/><path d="M-172.9-658.97v100.94h125.45v-100.94z" stroke="#000" stroke-opacity="0" fill-opacity="0"/><g><use xlink:href="#I" transform="matrix(1,0,0,1,-204.1734824156233,-548) translate(49.050998263888886 21.52777777777778)"/></g><defs><path d="M180 0v-1490h528c311 0 458 177 458 395 0 191-114 278-244 313v14c139 9 302 137 302 371 0 225-148 397-499 397H180zm190-168h350c232 0 321-102 321-231 0-149-120-277-311-277H370v508zm0-668h328c160 0 286-101 286-255 0-129-87-231-280-231H370v486" id="J"/><path d="M158 0v-1118h174v172h12c41-113 157-188 290-188 26 0 70 2 91 3v181c-11-2-60-10-108-10-161 0-279 109-279 260V0H158" id="K"/><path d="M613 24c-304 0-509-231-509-576 0-350 205-580 509-580 305 0 511 230 511 580 0 345-206 576-511 576zm0-161c226 0 329-195 329-415 0-222-103-419-329-419-223 0-326 196-326 419 0 220 103 415 326 415" id="L"/><path d="M409 0L70-1118h191c89 329 165 560 243 925 75-353 154-601 240-925h192c85 325 161 564 235 922 77-354 157-598 244-922h191L1267 0h-179c-86-307-176-590-250-913C763-588 675-308 588 0H409" id="M"/><path d="M538 24C308 24 148-78 108-271l171-41c32 123 123 178 257 178 156 0 256-77 256-169 0-77-54-128-164-154l-186-44c-203-48-300-148-300-305 0-192 176-326 414-326 230 0 351 112 402 269l-163 42c-31-80-94-158-238-158-133 0-233 69-233 162 0 83 57 129 188 160l169 40c203 48 298 149 298 302 0 196-179 339-441 339" id="N"/><path d="M628 24c-324 0-524-230-524-574 0-343 198-582 503-582 237 0 487 146 487 559v75H286c9 234 145 362 343 362 132 0 231-58 273-172l174 48C1024-91 857 24 628 24zM287-650h624c-17-190-120-322-304-322-192 0-309 151-320 322" id="O"/><g id="b"><use transform="matrix(0.010850694444444444,0,0,0.010850694444444444,0,0)" xlink:href="#J"/><use transform="matrix(0.010850694444444444,0,0,0.010850694444444444,14.539930555555555,0)" xlink:href="#K"/><use transform="matrix(0.010850694444444444,0,0,0.010850694444444444,22.53689236111111,0)" xlink:href="#L"/><use transform="matrix(0.010850694444444444,0,0,0.010850694444444444,35.46006944444444,0)" xlink:href="#M"/><use transform="matrix(0.010850694444444444,0,0,0.010850694444444444,53.64583333333333,0)" xlink:href="#N"/><use transform="matrix(0.010850694444444444,0,0,0.010850694444444444,65.37543402777777,0)" xlink:href="#O"/><use transform="matrix(0.010850694444444444,0,0,0.010850694444444444,78.33116319444444,0)" xlink:href="#K"/></g><path d="M180 0v-1490h224l606 953c40 63 108 177 176 312-27-437-7-821-13-1265h190V0h-226C860-448 622-778 356-1262c27 476 11 792 15 1262H180" id="P"/><path d="M65 0l393-574-370-544h210c88 136 192 297 267 435 67-142 176-302 264-435h206L661-564 1053 0H844c-94-144-206-310-287-458C484-308 366-142 273 0H65" id="Q"/><path d="M598-1118v154H368v674c0 100 37 144 132 144 23 0 62-6 92-12L629-6c-37 13-88 20-134 20-193 0-307-107-307-290v-688H20v-154h168v-266h180v266h230" id="R"/><path d="M295 13c-75 0-135-60-135-135s60-135 135-135 135 60 135 135S370 13 295 13" id="S"/><path d="M157-1118h181V80c1 225-123 350-364 338V252c126 9 184-48 183-172v-1198zm91-183c-68 0-125-53-125-119s57-119 125-119c69 0 126 53 126 119s-57 119-126 119" id="T"/><g id="d"><use transform="matrix(0.010850694444444444,0,0,0.010850694444444444,0,0)" xlink:href="#P"/><use transform="matrix(0.010850694444444444,0,0,0.010850694444444444,16.74262152777778,0)" xlink:href="#O"/><use transform="matrix(0.010850694444444444,0,0,0.010850694444444444,29.19921875,0)" xlink:href="#Q"/><use transform="matrix(0.010850694444444444,0,0,0.010850694444444444,41.76432291666667,0)" xlink:href="#R"/><use transform="matrix(0.010850694444444444,0,0,0.010850694444444444,49.03428819444445,0)" xlink:href="#S"/><use transform="matrix(0.010850694444444444,0,0,0.010850694444444444,55.43619791666667,0)" xlink:href="#T"/><use transform="matrix(0.010850694444444444,0,0,0.010850694444444444,60.81814236111112,0)" xlink:href="#N"/></g><path d="M180 0v-1490h901v168H370v510h643v168H370V0H180" id="U"/><path d="M338-670V0H158v-1118h173l1 207c72-158 192-221 342-221 226 0 378 139 378 422V0H872v-695c0-172-96-275-252-275-161 0-282 109-282 300" id="V"/><path d="M577 24c-279 0-473-224-473-580 0-354 195-576 474-576 218 0 287 134 324 193h14v-551h180V0H922v-173h-20C865-111 790 24 577 24zm27-161c203 0 314-172 314-421 0-247-108-413-314-413-212 0-317 181-317 413 0 235 108 421 317 421" id="W"/><g id="e"><use transform="matrix(0.010850694444444444,0,0,0.010850694444444444,0,0)" xlink:href="#U"/><use transform="matrix(0.010850694444444444,0,0,0.010850694444444444,12.467447916666666,0)" xlink:href="#K"/><use transform="matrix(0.010850694444444444,0,0,0.010850694444444444,20.46440972222222,0)" xlink:href="#L"/><use transform="matrix(0.010850694444444444,0,0,0.010850694444444444,33.7890625,0)" xlink:href="#V"/><use transform="matrix(0.010850694444444444,0,0,0.010850694444444444,46.91840277777778,0)" xlink:href="#R"/><use transform="matrix(0.010850694444444444,0,0,0.010850694444444444,53.97135416666667,0)" xlink:href="#O"/><use transform="matrix(0.010850694444444444,0,0,0.010850694444444444,66.92708333333334,0)" xlink:href="#V"/><use transform="matrix(0.010850694444444444,0,0,0.010850694444444444,80.05642361111111,0)" xlink:href="#W"/></g><path d="M218-607c0-325 108-727 258-974h175c-155 315-250 682-250 974 0 265 78 531 250 886H476C306-10 218-315 218-607" id="X"/><path d="M180 0v-1490h510c348 0 508 209 508 474 0 266-160 477-507 477H370V0H180zm190-706h312c236 0 327-133 327-310 0-176-91-307-329-307H370v617" id="Y"/><g id="f"><use transform="matrix(0.010850694444444444,0,0,0.010850694444444444,0,0)" xlink:href="#X"/><use transform="matrix(0.010850694444444444,0,0,0.010850694444444444,8.10546875,0)" xlink:href="#Y"/><use transform="matrix(0.010850694444444444,0,0,0.010850694444444444,22.178819444444443,0)" xlink:href="#L"/><use transform="matrix(0.010850694444444444,0,0,0.010850694444444444,35.50347222222222,0)" xlink:href="#K"/><use transform="matrix(0.010850694444444444,0,0,0.010850694444444444,44.21657986111111,0)" xlink:href="#R"/></g><path d="M635 20c-292 0-500-160-510-396h192c11 142 145 229 315 229 187 0 323-105 323-260 0-161-125-274-346-274H488v-165h121c174 0 294-100 294-254 0-148-104-245-266-245-152 0-291 85-297 230H157c8-234 222-395 484-395 278 0 448 188 448 400 0 168-95 291-247 336v12c190 31 301 169 301 357 0 244-216 425-508 425" id="Z"/><path d="M646 20c-332 0-524-278-524-764 0-483 194-766 524-766s524 283 524 766c0 485-191 764-524 764zm0-166c218 0 341-220 341-598 0-380-123-601-341-601s-341 222-341 601c0 378 123 598 341 598" id="aa"/><path d="M96 279C273-86 346-350 346-607c0-292-95-659-250-974h175c150 246 258 650 258 974 0 297-91 602-258 886H96" id="ab"/><g id="g"><use transform="matrix(0.010850694444444444,0,0,0.010850694444444444,0,0)" xlink:href="#Z"/><use transform="matrix(0.010850694444444444,0,0,0.010850694444444444,13.726128472222221,0)" xlink:href="#aa"/><use transform="matrix(0.010850694444444444,0,0,0.010850694444444444,27.745225694444443,0)" xlink:href="#aa"/><use transform="matrix(0.010850694444444444,0,0,0.010850694444444444,41.764322916666664,0)" xlink:href="#aa"/><use transform="matrix(0.010850694444444444,0,0,0.010850694444444444,55.783420138888886,0)" xlink:href="#ab"/></g><path d="M338-1490V0H158v-1490h180" id="ac"/><path d="M471 26C259 26 90-98 90-318c0-256 228-303 435-329 202-27 287-16 287-108 0-139-79-219-234-219-161 0-248 86-283 164l-173-57c86-203 278-265 451-265 150 0 419 46 419 395V0H815v-152h-12C765-73 660 26 471 26zm31-159c199 0 310-134 310-271v-155c-30 35-226 55-295 64-131 17-246 59-246 186 0 116 97 176 231 176" id="ad"/><path d="M158 0v-1490h180v865h22l478-493h223L593-638 1096 0H865L456-523 338-412V0H158" id="ae"/><g id="i"><use transform="matrix(0.010850694444444444,0,0,0.010850694444444444,0,0)" xlink:href="#U"/><use transform="matrix(0.010850694444444444,0,0,0.010850694444444444,13.118489583333332,0)" xlink:href="#ac"/><use transform="matrix(0.010850694444444444,0,0,0.010850694444444444,18.50043402777778,0)" xlink:href="#ad"/><use transform="matrix(0.010850694444444444,0,0,0.010850694444444444,30.97873263888889,0)" xlink:href="#N"/><use transform="matrix(0.010850694444444444,0,0,0.010850694444444444,42.708333333333336,0)" xlink:href="#ae"/></g><path d="M613 24c-304 0-509-231-509-576 0-350 205-580 509-580 216 0 392 114 453 309l-173 49c-33-115-133-197-280-197-223 0-326 196-326 419 0 220 103 415 326 415 150 0 252-85 285-206l172 49C1010-95 832 24 613 24" id="af"/><g id="j"><use transform="matrix(0.010850694444444444,0,0,0.010850694444444444,0,0)" xlink:href="#J"/><use transform="matrix(0.010850694444444444,0,0,0.010850694444444444,14.539930555555555,0)" xlink:href="#ad"/><use transform="matrix(0.010850694444444444,0,0,0.010850694444444444,27.018229166666664,0)" xlink:href="#af"/><use transform="matrix(0.010850694444444444,0,0,0.010850694444444444,39.713541666666664,0)" xlink:href="#ae"/><use transform="matrix(0.010850694444444444,0,0,0.010850694444444444,51.41059027777778,0)" xlink:href="#O"/><use transform="matrix(0.010850694444444444,0,0,0.010850694444444444,64.36631944444444,0)" xlink:href="#V"/><use transform="matrix(0.010850694444444444,0,0,0.010850694444444444,77.49565972222221,0)" xlink:href="#W"/></g><path d="M633 20c-303 0-511-173-511-416 0-188 124-348 291-378v-8c-145-37-237-174-237-332 0-227 192-396 457-396 261 0 456 169 456 396 0 158-94 295-235 332v8c162 30 291 190 291 378 0 243-212 416-512 416zm0-165c197 0 322-103 322-261 0-165-138-283-322-283-188 0-324 118-324 283 0 158 123 261 324 261zm0-703c157 0 272-101 272-252 0-149-110-246-272-246-165 0-273 97-273 246 0 151 112 252 273 252" id="ag"/><path d="M646 20c-249 0-524-159-524-708 0-524 209-822 547-822 250 0 431 161 467 395H950c-33-129-126-227-281-227-229 0-367 208-367 566h12c80-124 212-198 367-198 255 0 467 205 467 493 0 278-198 501-502 501zm0-167c179 0 318-148 318-334 0-182-133-328-313-328-181 0-322 156-322 330 0 176 134 332 317 332" id="ah"/><g id="k"><use transform="matrix(0.010850694444444444,0,0,0.010850694444444444,0,0)" xlink:href="#ag"/><use transform="matrix(0.010850694444444444,0,0,0.010850694444444444,13.74782986111111,0)" xlink:href="#aa"/><use transform="matrix(0.010850694444444444,0,0,0.010850694444444444,27.766927083333332,0)" xlink:href="#ah"/><use transform="matrix(0.010850694444444444,0,0,0.010850694444444444,41.54730902777778,0)" xlink:href="#aa"/><use transform="matrix(0.010850694444444444,0,0,0.010850694444444444,55.56640625,0)" xlink:href="#ab"/></g><path d="M825-1490c63-11 125-6 188 0l28 165c51 11 102 28 148 51l119-114c51 34 102 68 148 114l-68 142c34 40 68 80 91 125l142-17c28 57 46 125 57 188l-119 68v148l119 74c-11 63-28 125-57 182l-142-17c-23 46-57 85-91 125l68 142c-46 46-97 80-148 114l-119-108c-46 23-97 34-148 46l-28 165c-63 6-125 11-188 0L791-62c-51-11-97-23-142-46L530 0c-51-34-102-68-148-114l63-142c-34-40-63-80-85-125l-148 17c-28-57-46-119-57-182l125-74c-11-51-6-97 0-148l-125-68c11-63 28-131 57-188l148 17c23-46 51-85 85-125l-63-142c46-46 97-80 148-114l119 108c46-23 91-34 142-46zm557 796c0-245-222-461-466-461-245 0-461 216-461 461s210 461 461 461c250 0 466-216 466-461zM916-865c91 0 176 80 176 171s-85 171-176 171c-85 0-171-85-171-171 0-85 85-171 171-171" id="ai"/><use transform="matrix(0.010850694444444444,0,0,0.010850694444444444,0,0)" xlink:href="#ai" id="l"/><path d="M783 20c-382 0-661-292-661-764 0-473 279-766 661-766 302 0 548 182 601 489h-190c-42-204-217-313-411-313-268 0-476 208-476 590 0 381 209 588 476 588 195 0 369-110 411-313h190c-52 303-296 489-601 489" id="aj"/><path d="M140 405l46-156c120 36 205 19 263-150l32-93L54-1118h197c107 313 237 620 324 950 87-331 219-637 326-950h196L606 167c-68 178-176 259-334 259-64 0-113-12-132-21" id="ak"/><g id="m"><use transform="matrix(0.010850694444444444,0,0,0.010850694444444444,0,0)" xlink:href="#aj"/><use transform="matrix(0.010850694444444444,0,0,0.010850694444444444,16.23263888888889,0)" xlink:href="#O"/><use transform="matrix(0.010850694444444444,0,0,0.010850694444444444,29.18836805555556,0)" xlink:href="#ac"/><use transform="matrix(0.010850694444444444,0,0,0.010850694444444444,34.5703125,0)" xlink:href="#O"/><use transform="matrix(0.010850694444444444,0,0,0.010850694444444444,47.526041666666664,0)" xlink:href="#K"/><use transform="matrix(0.010850694444444444,0,0,0.010850694444444444,56.23914930555555,0)" xlink:href="#ak"/></g><path d="M458 0L52-1490h194c108 439 233 855 324 1313 92-459 221-873 331-1313h216c110 438 234 854 330 1307 92-455 216-869 323-1307h196L1558 0h-221l-256-944c-26-95-50-200-73-331-22 122-44 223-73 331L680 0H458" id="al"/><g id="n"><use transform="matrix(0.010850694444444444,0,0,0.010850694444444444,0,0)" xlink:href="#al"/><use transform="matrix(0.010850694444444444,0,0,0.010850694444444444,20.768229166666668,0)" xlink:href="#L"/><use transform="matrix(0.010850694444444444,0,0,0.010850694444444444,34.09288194444444,0)" xlink:href="#K"/><use transform="matrix(0.010850694444444444,0,0,0.010850694444444444,42.80598958333333,0)" xlink:href="#ae"/><use transform="matrix(0.010850694444444444,0,0,0.010850694444444444,54.50303819444444,0)" xlink:href="#O"/><use transform="matrix(0.010850694444444444,0,0,0.010850694444444444,67.45876736111111,0)" xlink:href="#K"/><use transform="matrix(0.010850694444444444,0,0,0.010850694444444444,75.82465277777779,0)" xlink:href="#N"/></g><path d="M180 0v-1490h190c0 262 1 526-3 784 217-279 467-523 702-784h249L716-845 1319 0h-225L585-716 370-489V0H180" id="am"/><g id="o"><use transform="matrix(0.010850694444444444,0,0,0.010850694444444444,0,0)" xlink:href="#X"/><use transform="matrix(0.010850694444444444,0,0,0.010850694444444444,8.10546875,0)" xlink:href="#am"/><use transform="matrix(0.010850694444444444,0,0,0.010850694444444444,22.28732638888889,0)" xlink:href="#aj"/><use transform="matrix(0.010850694444444444,0,0,0.010850694444444444,38.51996527777778,0)" xlink:href="#aj"/></g><path d="M180 0v-1490h908v168H370v486h669v168H370v500h727V0H180" id="an"/><path d="M611 442c-248 0-391-105-460-228l146-94c47 65 117 165 314 165 178 0 307-82 307-266v-224h-17C863-141 792-18 576-18c-268 0-472-195-472-546 0-346 197-568 476-568 216 0 288 133 326 193h17v-179h175V29c0 289-215 413-487 413zm-5-620c203 0 314-146 314-390 0-237-108-403-314-403-213 0-319 180-319 403 0 230 109 390 319 390" id="ao"/><path d="M158 0v-1118h180V0H158zm91-1301c-68 0-125-53-125-119s57-119 125-119c69 0 126 53 126 119s-57 119-126 119" id="ap"/><g id="p"><use transform="matrix(0.010850694444444444,0,0,0.010850694444444444,0,0)" xlink:href="#an"/><use transform="matrix(0.010850694444444444,0,0,0.010850694444444444,13.35720486111111,0)" xlink:href="#V"/><use transform="matrix(0.010850694444444444,0,0,0.010850694444444444,26.48654513888889,0)" xlink:href="#ao"/><use transform="matrix(0.010850694444444444,0,0,0.010850694444444444,40.11501736111111,0)" xlink:href="#ap"/><use transform="matrix(0.010850694444444444,0,0,0.010850694444444444,45.49696180555556,0)" xlink:href="#V"/><use transform="matrix(0.010850694444444444,0,0,0.010850694444444444,58.62630208333333,0)" xlink:href="#O"/><use transform="matrix(0.010850694444444444,0,0,0.010850694444444444,71.33246527777777,0)" xlink:href="#ab"/></g><path fill="#3a414a" d="M135 0v-1490h305v602h649v-602h306V0h-306v-635H440V0H135" id="aq"/><path fill="#3a414a" d="M75-1237v-253h1217v253H837V0H531v-1237H75" id="ar"/><path fill="#3a414a" d="M135 0v-1490h581c339 0 533 210 533 503 0 295-197 500-540 500H440V0H135zm305-733h220c186 0 274-104 274-254s-88-251-275-251H440v505" id="as"/><path fill="#3a414a" d="M681 22C323 22 94-145 85-462h297c10 151 131 226 296 226 163 0 271-77 271-190 0-102-95-149-257-189l-164-41c-252-61-403-188-403-405 0-269 236-449 560-449 330 0 546 183 551 445H941c-11-119-106-188-259-188-156 0-244 72-244 172-3 156 226 185 373 221 250 61 445 186 445 436 0 271-213 446-575 446" id="at"/><g id="q"><use transform="matrix(0.008680555555555556,0,0,0.008680555555555556,0,0)" xlink:href="#aq"/><use transform="matrix(0.008680555555555556,0,0,0.008680555555555556,13.28125,0)" xlink:href="#ar"/><use transform="matrix(0.008680555555555556,0,0,0.008680555555555556,25.147569444444443,0)" xlink:href="#ar"/><use transform="matrix(0.008680555555555556,0,0,0.008680555555555556,37.013888888888886,0)" xlink:href="#as"/><use transform="matrix(0.008680555555555556,0,0,0.008680555555555556,48.53298611111111,0)" xlink:href="#at"/></g><path fill="#3a414a" d="M49 0l509-1490h400L1480 0h-339l-115-346H497L386 0H49zm524-585h374c-75-213-124-402-192-666-66 268-110 453-182 666" id="au"/><path fill="#3a414a" d="M440-1490V0H135v-1490h305" id="av"/><g id="r"><use transform="matrix(0.008680555555555556,0,0,0.008680555555555556,0,0)" xlink:href="#au"/><use transform="matrix(0.008680555555555556,0,0,0.008680555555555556,13.272569444444445,0)" xlink:href="#as"/><use transform="matrix(0.008680555555555556,0,0,0.008680555555555556,24.791666666666668,0)" xlink:href="#av"/></g><path fill="#3a414a" d="M169-607c0-330 107-732 258-974h279c-145 311-231 674-231 974 0 262 67 512 231 886H427C258-1 169-307 169-607" id="aw"/><path fill="#3a414a" d="M67 279c166-379 230-627 230-886 0-300-86-663-230-974h278c151 241 258 644 258 974 0 302-90 608-258 886H67" id="ax"/><g id="s"><use transform="matrix(0.008680555555555556,0,0,0.008680555555555556,0,0)" xlink:href="#aw"/><use transform="matrix(0.008680555555555556,0,0,0.008680555555555556,7.022569444444445,0)" xlink:href="#aq"/><use transform="matrix(0.008680555555555556,0,0,0.008680555555555556,20.303819444444443,0)" xlink:href="#ar"/><use transform="matrix(0.008680555555555556,0,0,0.008680555555555556,32.170138888888886,0)" xlink:href="#ar"/><use transform="matrix(0.008680555555555556,0,0,0.008680555555555556,44.03645833333333,0)" xlink:href="#as"/><use transform="matrix(0.008680555555555556,0,0,0.008680555555555556,55.55555555555555,0)" xlink:href="#ax"/></g><path fill="#3a414a" d="M135 0v-1490h997v253H440v360h640v249H440v375h694V0H135" id="ay"/><path fill="#3a414a" d="M428-647V0H128v-1118h283l4 231c63-156 176-245 348-245 232 0 384 159 384 421V0H847v-659c0-139-76-222-202-222-128 0-217 86-217 234" id="az"/><path fill="#3a414a" d="M1163 418H863v-597h-10C812-89 719 19 537 19 279 19 81-185 81-557c0-382 206-575 454-575 190 0 278 113 318 202h15v-188h295V418zM629-222c153 0 240-134 240-336 0-203-86-334-240-334-158 0-240 138-240 334 0 197 84 336 240 336" id="aA"/><path fill="#3a414a" d="M513 14c-232 0-385-159-385-421v-711h300v659c0 139 76 222 202 222 127 0 217-86 217-234v-647h301V0H864l-4-232C797-74 683 14 513 14" id="aB"/><path fill="#3a414a" d="M633 22C291 22 81-200 81-553c0-345 210-579 537-579 292 0 525 185 525 567v84H378c7 183 109 277 260 277 105 0 184-46 216-132l272 51C1071-99 893 22 633 22zM380-669h474c-15-146-94-237-233-237-143 0-229 99-241 237" id="aC"/><g id="t"><use transform="matrix(0.008680555555555556,0,0,0.008680555555555556,0,0)" xlink:href="#ay"/><use transform="matrix(0.008680555555555556,0,0,0.008680555555555556,10.79861111111111,0)" xlink:href="#az"/><use transform="matrix(0.008680555555555556,0,0,0.008680555555555556,21.866319444444443,0)" xlink:href="#aA"/><use transform="matrix(0.008680555555555556,0,0,0.008680555555555556,33.072916666666664,0)" xlink:href="#aB"/><use transform="matrix(0.008680555555555556,0,0,0.008680555555555556,44.140625,0)" xlink:href="#aC"/><use transform="matrix(0.008680555555555556,0,0,0.008680555555555556,54.73090277777778,0)" xlink:href="#aB"/><use transform="matrix(0.008680555555555556,0,0,0.008680555555555556,65.79861111111111,0)" xlink:href="#aC"/></g><path fill="#3a414a" d="M127-1118h301V57c1 278-186 374-478 361V182c116 8 177-28 177-129v-1171zm151-146c-90 0-165-68-165-154 0-85 75-154 165-154s165 69 165 154c0 86-75 154-165 154" id="aD"/><path fill="#3a414a" d="M628 22C291 22 81-210 81-554c0-346 210-578 547-578 336 0 547 232 547 578 0 344-211 576-547 576zm0-236c160 0 242-146 242-341 0-197-82-341-242-341S387-753 387-555c0 195 81 341 241 341" id="aE"/><path fill="#3a414a" d="M754 19C571 19 479-89 437-179h-14V0H128v-1490h300v560h9c41-89 129-202 319-202 248 0 453 193 453 575 0 372-197 576-455 576zm-92-241c156 0 240-139 240-336 0-196-83-334-240-334-154 0-241 131-241 334 0 202 88 336 241 336" id="aF"/><path fill="#3a414a" d="M572 22C302 22 117-98 78-306l279-48c29 105 101 156 224 156 114 0 185-48 185-115 0-118-228-130-337-155-215-49-322-150-322-317 0-215 187-347 470-347 265 0 424 116 466 298l-266 47c-24-76-87-130-196-130-98 0-174 46-174 113 0 56 38 95 144 117l201 40c216 44 320 143 320 302 0 220-207 367-500 367" id="aG"/><g id="u"><use transform="matrix(0.008680555555555556,0,0,0.008680555555555556,0,0)" xlink:href="#aD"/><use transform="matrix(0.008680555555555556,0,0,0.008680555555555556,4.817708333333334,0)" xlink:href="#aE"/><use transform="matrix(0.008680555555555556,0,0,0.008680555555555556,15.720486111111112,0)" xlink:href="#aF"/><use transform="matrix(0.008680555555555556,0,0,0.008680555555555556,26.927083333333336,0)" xlink:href="#aG"/></g><path fill="#3a414a" d="M786 20C389 20 94-260 94-744c0-487 299-766 692-766 339 0 597 194 641 529h-309c-28-162-156-258-326-258-233 0-388 179-388 495 0 323 157 493 387 493 170 0 298-97 328-259h309c-34 277-266 530-642 530" id="aH"/><path fill="#3a414a" d="M128 0v-1118h278l12 217c60-163 185-234 319-234 143 0 236 81 288 251 63-172 205-251 359-251 205 0 357 138 357 381V0h-301v-697c0-126-76-187-177-187-114 0-184 79-184 196V0H789v-705c0-109-72-179-174-179-106 0-187 74-187 208V0H128" id="aI"/><g id="v"><use transform="matrix(0.008680555555555556,0,0,0.008680555555555556,0,0)" xlink:href="#aH"/><use transform="matrix(0.008680555555555556,0,0,0.008680555555555556,13.151041666666668,0)" xlink:href="#aE"/><use transform="matrix(0.008680555555555556,0,0,0.008680555555555556,24.053819444444446,0)" xlink:href="#az"/><use transform="matrix(0.008680555555555556,0,0,0.008680555555555556,35.12152777777778,0)" xlink:href="#aG"/><use transform="matrix(0.008680555555555556,0,0,0.008680555555555556,45.078125,0)" xlink:href="#aB"/><use transform="matrix(0.008680555555555556,0,0,0.008680555555555556,56.145833333333336,0)" xlink:href="#aI"/><use transform="matrix(0.008680555555555556,0,0,0.008680555555555556,72.36979166666667,0)" xlink:href="#aC"/></g><path fill="#3a414a" d="M135 0v-1490h581c339 0 533 192 533 485 0 204-94 351-264 424L1302 0H964L680-532H440V0H135zm305-779h220c186 0 274-77 274-226 0-150-88-233-275-233H440v459" id="aJ"/><path fill="#3a414a" d="M750 21c-371 0-615-218-615-544v-967h305v942c0 174 123 299 310 299s309-125 309-299v-942h306v967c0 326-247 544-615 544" id="aK"/><path fill="#3a414a" d="M659 0H135v-1490h529c448 0 721 280 721 744 0 466-273 746-726 746zM440-263h204c287 0 437-148 437-483 0-333-150-481-435-481H440v964" id="aL"/><g id="w"><use transform="matrix(0.008680555555555556,0,0,0.008680555555555556,0,0)" xlink:href="#aH"/><use transform="matrix(0.008680555555555556,0,0,0.008680555555555556,13.151041666666668,0)" xlink:href="#aJ"/><use transform="matrix(0.008680555555555556,0,0,0.008680555555555556,24.826388888888893,0)" xlink:href="#aK"/><use transform="matrix(0.008680555555555556,0,0,0.008680555555555556,37.83854166666667,0)" xlink:href="#aL"/></g><path fill="#3a414a" d="M440 22C227 22 68-92 68-313c0-250 202-322 422-343 195-21 271-24 271-105 0-95-63-149-175-149-116 0-187 57-211 129l-275-46c57-194 237-305 487-305 240 0 474 108 474 379V0H777v-155h-10C713-51 605 22 440 22zm85-211c140 0 238-93 238-211v-121c-37 26-156 42-222 51-111 16-185 59-185 149 0 87 70 132 169 132" id="aM"/><path fill="#3a414a" d="M537 19C279 19 81-185 81-557c0-382 206-575 454-575 190 0 278 113 318 202h10v-560h300V0H868v-179h-15C812-89 719 19 537 19zm92-241c153 0 240-134 240-336 0-203-86-334-240-334-158 0-240 138-240 334 0 197 84 336 240 336" id="aN"/><path fill="#3a414a" d="M768-1560L288 224H28l480-1784h260" id="aO"/><path fill="#3a414a" d="M449 0L49-1490h333c89 395 194 758 253 1185 65-426 176-790 269-1185h317c93 394 201 758 268 1181 60-425 164-788 253-1181h334L1675 0h-348c-90-376-204-711-266-1118C1004-714 886-373 798 0H449" id="aP"/><path fill="#3a414a" d="M128 0v-1118h290v195h12c54-169 184-238 367-200v268c-27-8-86-15-130-15-138 0-239 95-239 234V0H128" id="aQ"/><path fill="#3a414a" d="M128 0v-1118h300V0H128zm150-1264c-91 0-165-68-165-154 0-85 74-154 165-154 90 0 165 69 165 154 0 86-75 154-165 154" id="aR"/><path fill="#3a414a" d="M683-1118v229H474v562c0 71 29 104 102 104 23 0 73-7 95-13l43 225C647 9 580 16 520 16 296 16 174-96 174-301v-588H20v-229h154v-266h300v266h209" id="aS"/><g id="x"><use transform="matrix(0.008680555555555556,0,0,0.008680555555555556,0,0)" xlink:href="#aJ"/><use transform="matrix(0.008680555555555556,0,0,0.008680555555555556,11.458333333333334,0)" xlink:href="#aC"/><use transform="matrix(0.008680555555555556,0,0,0.008680555555555556,22.22222222222222,0)" xlink:href="#aM"/><use transform="matrix(0.008680555555555556,0,0,0.008680555555555556,32.54340277777778,0)" xlink:href="#aN"/><use transform="matrix(0.008680555555555556,0,0,0.008680555555555556,43.75,0)" xlink:href="#aO"/><use transform="matrix(0.008680555555555556,0,0,0.008680555555555556,50.78993055555555,0)" xlink:href="#aP"/><use transform="matrix(0.008680555555555556,0,0,0.008680555555555556,68.63715277777777,0)" xlink:href="#aQ"/><use transform="matrix(0.008680555555555556,0,0,0.008680555555555556,76.00694444444443,0)" xlink:href="#aR"/><use transform="matrix(0.008680555555555556,0,0,0.008680555555555556,80.82465277777774,0)" xlink:href="#aS"/><use transform="matrix(0.008680555555555556,0,0,0.008680555555555556,87.16145833333331,0)" xlink:href="#aC"/></g><g id="y"><use transform="matrix(0.008680555555555556,0,0,0.008680555555555556,0,0)" xlink:href="#as"/><use transform="matrix(0.008680555555555556,0,0,0.008680555555555556,11.371527777777779,0)" xlink:href="#aC"/><use transform="matrix(0.008680555555555556,0,0,0.008680555555555556,21.961805555555557,0)" xlink:href="#aQ"/><use transform="matrix(0.008680555555555556,0,0,0.008680555555555556,29.201388888888893,0)" xlink:href="#aG"/><use transform="matrix(0.008680555555555556,0,0,0.008680555555555556,39.157986111111114,0)" xlink:href="#aR"/><use transform="matrix(0.008680555555555556,0,0,0.008680555555555556,43.97569444444444,0)" xlink:href="#aG"/><use transform="matrix(0.008680555555555556,0,0,0.008680555555555556,53.93229166666667,0)" xlink:href="#aS"/></g><path fill="#3a414a" d="M428-1490V0H128v-1490h300" id="aT"/><g id="z"><use transform="matrix(0.008680555555555556,0,0,0.008680555555555556,0,0)" xlink:href="#aQ"/><use transform="matrix(0.008680555555555556,0,0,0.008680555555555556,6.805555555555556,0)" xlink:href="#aC"/><use transform="matrix(0.008680555555555556,0,0,0.008680555555555556,17.395833333333336,0)" xlink:href="#aG"/><use transform="matrix(0.008680555555555556,0,0,0.008680555555555556,27.352430555555557,0)" xlink:href="#aB"/><use transform="matrix(0.008680555555555556,0,0,0.008680555555555556,38.42013888888889,0)" xlink:href="#aT"/><use transform="matrix(0.008680555555555556,0,0,0.008680555555555556,43.49826388888889,0)" xlink:href="#aS"/><use transform="matrix(0.008680555555555556,0,0,0.008680555555555556,49.87847222222222,0)" xlink:href="#aG"/></g><g id="A"><use transform="matrix(0.008680555555555556,0,0,0.008680555555555556,0,0)" xlink:href="#aJ"/><use transform="matrix(0.008680555555555556,0,0,0.008680555555555556,11.458333333333334,0)" xlink:href="#aC"/><use transform="matrix(0.008680555555555556,0,0,0.008680555555555556,22.22222222222222,0)" xlink:href="#aM"/><use transform="matrix(0.008680555555555556,0,0,0.008680555555555556,32.54340277777778,0)" xlink:href="#aN"/><use transform="matrix(0.008680555555555556,0,0,0.008680555555555556,43.75,0)" xlink:href="#aO"/><use transform="matrix(0.008680555555555556,0,0,0.008680555555555556,50.78993055555555,0)" xlink:href="#aP"/><use transform="matrix(0.008680555555555556,0,0,0.008680555555555556,68.63715277777777,0)" xlink:href="#aQ"/><use transform="matrix(0.008680555555555556,0,0,0.008680555555555556,76.00694444444443,0)" xlink:href="#aR"/><use transform="matrix(0.008680555555555556,0,0,0.008680555555555556,80.82465277777774,0)" xlink:href="#aS"/><use transform="matrix(0.008680555555555556,0,0,0.008680555555555556,87.16145833333331,0)" xlink:href="#aC"/></g><path fill="#3a414a" d="M750-1118v229H516V0H217v-889H20v-229h197v-86c0-238 156-356 363-356 94 0 178 20 215 31l-54 226c-25-7-61-15-100-15-123-3-131 84-125 200h234" id="aU"/><path fill="#3a414a" d="M628 22C291 22 81-210 81-554c0-346 210-578 547-578 265 0 455 142 497 372l-279 52c-25-116-99-188-215-188-160 0-244 139-244 341 0 200 84 341 244 341 116 0 193-74 217-195l279 51C1085-123 896 22 628 22" id="aV"/><g id="B"><use transform="matrix(0.008680555555555556,0,0,0.008680555555555556,0,0)" xlink:href="#aM"/><use transform="matrix(0.008680555555555556,0,0,0.008680555555555556,10.321180555555555,0)" xlink:href="#aQ"/><use transform="matrix(0.008680555555555556,0,0,0.008680555555555556,17.90798611111111,0)" xlink:href="#aS"/><use transform="matrix(0.008680555555555556,0,0,0.008680555555555556,24.41840277777778,0)" xlink:href="#aR"/><use transform="matrix(0.008680555555555556,0,0,0.008680555555555556,29.23611111111111,0)" xlink:href="#aU"/><use transform="matrix(0.008680555555555556,0,0,0.008680555555555556,35.96354166666667,0)" xlink:href="#aM"/><use transform="matrix(0.008680555555555556,0,0,0.008680555555555556,46.284722222222236,0)" xlink:href="#aV"/><use transform="matrix(0.008680555555555556,0,0,0.008680555555555556,56.74479166666667,0)" xlink:href="#aS"/><use transform="matrix(0.008680555555555556,0,0,0.008680555555555556,63.125,0)" xlink:href="#aG"/></g><path d="M180 0v-1490h510c348 0 508 194 508 460 0 198-88 351-276 417L1256 0h-220L726-579c-117 2-238 0-356 1V0H180zm190-747h312c235 0 327-108 327-283 0-177-92-293-329-293H370v576" id="aW"/><g id="C"><use transform="matrix(0.010850694444444444,0,0,0.010850694444444444,0,0)" xlink:href="#aW"/><use transform="matrix(0.010850694444444444,0,0,0.010850694444444444,13.975694444444445,0)" xlink:href="#O"/><use transform="matrix(0.010850694444444444,0,0,0.010850694444444444,26.931423611111104,0)" xlink:href="#W"/><use transform="matrix(0.010850694444444444,0,0,0.010850694444444444,40.53819444444444,0)" xlink:href="#ap"/><use transform="matrix(0.010850694444444444,0,0,0.010850694444444444,45.920138888888886,0)" xlink:href="#N"/></g><path d="M784 20c-382 0-662-292-662-764 0-473 280-766 662-766s660 293 660 766c0 282-99 499-260 629l192 255h-198L1049-33C969 2 880 20 784 20zm-62-486h198l156 205c112-98 183-261 183-483 0-383-209-590-475-590-268 0-477 208-477 590 0 380 209 588 477 588 54 0 106-9 154-25" id="aX"/><path d="M537 14c-226 0-379-139-379-422v-710h180v695c0 172 97 275 253 275 160 0 281-109 281-300v-670h181V0H879v-209C806-46 684 14 537 14" id="aY"/><g id="D"><use transform="matrix(0.010850694444444444,0,0,0.010850694444444444,0,0)" xlink:href="#X"/><use transform="matrix(0.010850694444444444,0,0,0.010850694444444444,8.10546875,0)" xlink:href="#aX"/><use transform="matrix(0.010850694444444444,0,0,0.010850694444444444,25.09765625,0)" xlink:href="#aY"/><use transform="matrix(0.010850694444444444,0,0,0.010850694444444444,38.23784722222222,0)" xlink:href="#O"/><use transform="matrix(0.010850694444444444,0,0,0.010850694444444444,51.193576388888886,0)" xlink:href="#aY"/><use transform="matrix(0.010850694444444444,0,0,0.010850694444444444,64.33376736111111,0)" xlink:href="#O"/><use transform="matrix(0.010850694444444444,0,0,0.010850694444444444,77.03993055555556,0)" xlink:href="#ab"/></g><linearGradient gradientUnits="userSpaceOnUse" id="E" x1="1120" y1="-1090.52" x2="1211" y2="-1090.52"><stop offset="0%" stop-color="#005ba1"/><stop offset="7%" stop-color="#0060a9"/><stop offset="36%" stop-color="#0071c8"/><stop offset="52%" stop-color="#0078d4"/><stop offset="64%" stop-color="#0074cd"/><stop offset="82%" stop-color="#006abb"/><stop offset="100%" stop-color="#005ba1"/></linearGradient><radialGradient gradientUnits="userSpaceOnUse" id="F" fx="1168.07" fy="-1087.6" cx="1168.07" cy="-1087.6" r="25.44"><stop offset="0%" stop-color="#f2f2f2"/><stop offset="58%" stop-color="#eee"/><stop offset="100%" stop-color="#e6e6e6"/></radialGradient><path d="M657 26c-323 0-524-166-541-416h195c15 169 171 246 346 246 202 0 356-106 356-265 5-203-294-238-475-293-239-73-380-191-380-389 0-252 224-419 512-419 294 0 499 171 508 396H992c-17-145-151-228-328-228-193 0-321 102-321 242 0 156 175 211 284 241l149 41c160 44 422 134 422 412 0 244-197 432-541 432" id="aZ"/><path d="M180 0v-1490h190v1322h690V0H180" id="ba"/><path d="M370-1490V0H180v-1490h190" id="bb"/><path d="M98-1322v-168h1126v168H757V0H567v-1322H98" id="bc"/><g id="G"><use transform="matrix(0.010850694444444444,0,0,0.010850694444444444,0,0)" xlink:href="#aZ"/><use transform="matrix(0.010850694444444444,0,0,0.010850694444444444,14.2578125,0)" xlink:href="#aX"/><use transform="matrix(0.010850694444444444,0,0,0.010850694444444444,31.25,0)" xlink:href="#ba"/><use transform="matrix(0.010850694444444444,0,0,0.010850694444444444,43.815104166666664,0)" xlink:href="#bb"/><use transform="matrix(0.010850694444444444,0,0,0.010850694444444444,49.78298611111111,0)" xlink:href="#bc"/><use transform="matrix(0.010850694444444444,0,0,0.010850694444444444,64.12760416666666,0)" xlink:href="#an"/></g><path d="M645 0H180v-1490h484c435 0 692 280 692 742 0 466-257 748-711 748zM370-168h263c363 0 539-218 539-580 0-358-176-574-521-574H370v1154" id="bd"/><path d="M677 24c-213 0-288-135-325-197h-20V0H158v-1490h180v551h14c37-59 106-193 324-193 279 0 474 222 474 576 0 356-194 580-473 580zm-27-161c209 0 317-186 317-421 0-232-105-413-317-413-206 0-314 166-314 413 0 249 111 421 314 421" id="be"/><g id="H"><use transform="matrix(0.010850694444444444,0,0,0.010850694444444444,0,0)" xlink:href="#bd"/><use transform="matrix(0.010850694444444444,0,0,0.010850694444444444,16.03732638888889,0)" xlink:href="#ad"/><use transform="matrix(0.010850694444444444,0,0,0.010850694444444444,28.515625,0)" xlink:href="#R"/><use transform="matrix(0.010850694444444444,0,0,0.010850694444444444,35.89409722222222,0)" xlink:href="#ad"/><use transform="matrix(0.010850694444444444,0,0,0.010850694444444444,48.37239583333333,0)" xlink:href="#be"/><use transform="matrix(0.010850694444444444,0,0,0.010850694444444444,62.19618055555554,0)" xlink:href="#ad"/><use transform="matrix(0.010850694444444444,0,0,0.010850694444444444,74.67447916666666,0)" xlink:href="#N"/><use transform="matrix(0.010850694444444444,0,0,0.010850694444444444,86.4040798611111,0)" xlink:href="#O"/></g><g id="I"><use transform="matrix(0.010850694444444444,0,0,0.010850694444444444,0,0)" xlink:href="#U"/><use transform="matrix(0.010850694444444444,0,0,0.010850694444444444,13.118489583333332,0)" xlink:href="#ap"/><use transform="matrix(0.010850694444444444,0,0,0.010850694444444444,18.50043402777778,0)" xlink:href="#ac"/><use transform="matrix(0.010850694444444444,0,0,0.010850694444444444,23.88237847222222,0)" xlink:href="#O"/><use transform="matrix(0.010850694444444444,0,0,0.010850694444444444,36.838107638888886,0)" xlink:href="#N"/><use transform="matrix(0.010850694444444444,0,0,0.010850694444444444,48.56770833333333,0)" xlink:href="#R"/><use transform="matrix(0.010850694444444444,0,0,0.010850694444444444,55.62065972222222,0)" xlink:href="#L"/><use transform="matrix(0.010850694444444444,0,0,0.010850694444444444,68.9453125,0)" xlink:href="#K"/><use transform="matrix(0.010850694444444444,0,0,0.010850694444444444,76.94227430555556,0)" xlink:href="#O"/></g></defs></g></svg>